<svg xmlns="http://www.w3.org/2000/svg" width="230.094" height="80.28" viewBox="0 0 230.094 80.28">
  <defs>
    <style>
      .cls-1 {
        fill: #fff;
        fill-rule: evenodd;
      }
    </style>
  </defs>
  <path id="logo" class="cls-1" d="M704.843,4169a2.465,2.465,0,0,1-1.075.24,1.9,1.9,0,0,1-1.861-2.14,2.028,2.028,0,0,1,2.012-2.23,1.99,1.99,0,0,1,.942.23l-0.154.57a1.6,1.6,0,0,0-.788-0.19,1.393,1.393,0,0,0-1.322,1.59,1.372,1.372,0,0,0,1.3,1.56,1.815,1.815,0,0,0,.834-0.2Zm0.742-2.73c0-.49-0.01-0.92-0.035-1.3h0.6l0.029,0.82H706.2a1.168,1.168,0,0,1,1.043-.92,0.563,0.563,0,0,1,.184.03v0.71a1.693,1.693,0,0,0-.238-0.02,1,1,0,0,0-.911.97,2.366,2.366,0,0,0-.025.36v2.23h-0.68Zm2.781,0.92a1.258,1.258,0,0,0,1.275,1.44,2.4,2.4,0,0,0,1.036-.2l0.121,0.53a2.783,2.783,0,0,1-1.252.27,1.855,1.855,0,0,1-1.836-2.1c0-1.27.67-2.26,1.763-2.26a1.707,1.707,0,0,1,1.533,1.96,2.028,2.028,0,0,1-.022.36h-2.618Zm1.983-.55a1.056,1.056,0,0,0-.933-1.23,1.209,1.209,0,0,0-1.045,1.23h1.978Zm4.17,1.5a7.86,7.86,0,0,0,.055,1.01h-0.612l-0.06-.53h-0.023a1.336,1.336,0,0,1-1.143.62,1.132,1.132,0,0,1-1.143-1.2c0-1.01.8-1.56,2.247-1.55v-0.09a0.835,0.835,0,0,0-.85-0.97,1.652,1.652,0,0,0-.978.32l-0.157-.51a2.207,2.207,0,0,1,1.236-.37,1.434,1.434,0,0,1,1.428,1.71v1.56Zm-0.665-1.13c-0.739-.01-1.581.13-1.581,0.94a0.637,0.637,0,0,0,.632.73,0.963,0.963,0,0,0,.92-0.7,0.789,0.789,0,0,0,.029-0.24v-0.73Zm2.61-3.04v1h0.97v0.58h-0.97v2.25c0,0.52.13,0.81,0.509,0.81a1.291,1.291,0,0,0,.392-0.05l0.031,0.58a1.755,1.755,0,0,1-.6.1,0.922,0.922,0,0,1-.735-0.32,1.782,1.782,0,0,1-.259-1.09v-2.28h-0.583v-0.58H715.8v-0.77Zm2.059,0.23a0.488,0.488,0,0,1,.017-0.97,0.441,0.441,0,0,1,.431.48,0.451,0.451,0,0,1-.442.49h-0.006Zm-0.324,4.95v-4.18h0.679v4.18H718.2ZM720,4166.1c0-.44,0-0.79-0.032-1.13h0.605l0.039,0.68h0.015a1.369,1.369,0,0,1,1.239-.78c0.514,0,1.316.35,1.316,1.78v2.5h-0.677v-2.41a0.923,0.923,0,1,0-1.775-.47,1.14,1.14,0,0,0-.049.36v2.52H720v-3.05Zm7.448,2.43a2.628,2.628,0,0,1-.535,1.92,1.918,1.918,0,0,1-1.365.5,2.169,2.169,0,0,1-1.244-.35l0.169-.58a1.889,1.889,0,0,0,1.1.33,1.2,1.2,0,0,0,1.205-1.47v-0.45h-0.012a1.3,1.3,0,0,1-1.193.69,1.8,1.8,0,0,1-1.587-2.04c0-1.41.823-2.21,1.688-2.21a1.222,1.222,0,0,1,1.165.72h0.018l0.022-.62h0.6c-0.027.29-.031,0.63-0.031,1.14v2.42Zm-0.681-1.92a1.088,1.088,0,0,0-.039-0.34,0.989,0.989,0,0,0-.95-0.81c-0.649,0-1.109.61-1.109,1.59a1.277,1.277,0,0,0,1.1,1.5,0.99,0.99,0,0,0,.94-0.79,1.321,1.321,0,0,0,.054-0.4v-0.75Zm3.667-.51c0-.44-0.008-0.79-0.029-1.13h0.6l0.039,0.68h0.017a1.367,1.367,0,0,1,1.234-.78c0.519,0,1.322.35,1.322,1.78v2.5H732.94v-2.41a0.923,0.923,0,1,0-1.775-.47,1.238,1.238,0,0,0-.046.36v2.52h-0.681v-3.05Zm4.674,1.09a1.258,1.258,0,0,0,1.273,1.44,2.38,2.38,0,0,0,1.035-.2l0.123,0.53a2.768,2.768,0,0,1-1.249.27,1.855,1.855,0,0,1-1.838-2.1c0-1.27.668-2.26,1.759-2.26a1.709,1.709,0,0,1,1.538,1.96,1.9,1.9,0,0,1-.024.36h-2.617Zm1.98-.55a1.054,1.054,0,0,0-.932-1.23,1.2,1.2,0,0,0-1.041,1.23h1.973Zm1.771-1.67,0.5,2.11c0.1,0.47.2,0.91,0.272,1.34h0.021c0.085-.42.21-0.87,0.332-1.33l0.613-2.12h0.57l0.578,2.09c0.139,0.49.247,0.94,0.333,1.36h0.022a13.8,13.8,0,0,1,.289-1.35l0.532-2.1H743.6l-1.2,4.18h-0.617l-0.576-2c-0.129-.47-0.237-0.89-0.33-1.38h-0.015c-0.1.5-.21,0.94-0.339,1.39l-0.605,1.99H739.3l-1.128-4.18h0.7Zm7.076,1.36c0-.53,0-0.97-0.029-1.36h0.613l0.039,0.72h0.011a1.423,1.423,0,0,1,1.324-.82c0.91,0,1.589.86,1.589,2.13,0,1.5-.826,2.24-1.7,2.24a1.263,1.263,0,0,1-1.153-.66h-0.013v2.27h-0.684v-4.52Zm0.684,1.12a1.273,1.273,0,0,0,.029.3,1.068,1.068,0,0,0,1.012.89c0.719,0,1.133-.65,1.133-1.61a1.317,1.317,0,0,0-1.1-1.55,1.117,1.117,0,0,0-1.034.93,2.794,2.794,0,0,0-.036.31v0.73Zm3.733-1.18c0-.49,0-0.92-0.032-1.3h0.6l0.029,0.82h0.022a1.168,1.168,0,0,1,1.045-.92,0.572,0.572,0,0,1,.184.03v0.71a1.714,1.714,0,0,0-.242-0.02,1,1,0,0,0-.91.97,2.669,2.669,0,0,0-.023.36v2.23h-0.677Zm3.955,2.97a1.908,1.908,0,0,1-1.791-2.15,1.958,1.958,0,0,1,1.851-2.22,1.9,1.9,0,0,1,1.8,2.14,1.952,1.952,0,0,1-1.855,2.23h-0.007Zm0.022-.57a1.717,1.717,0,1,0-1.126-1.6,1.382,1.382,0,0,0,1.12,1.6h0.006Zm5.949-5.65v5.05c0,0.37,0,.79.029,1.08H759.7l-0.03-.73h-0.018a1.36,1.36,0,0,1-1.264.82c-0.9,0-1.606-.86-1.606-2.12-0.01-1.4.77-2.25,1.673-2.25a1.238,1.238,0,0,1,1.132.63H759.6v-2.48h0.683Zm-0.683,3.65a1.682,1.682,0,0,0-.029-0.33,1.038,1.038,0,0,0-.983-0.87c-0.7,0-1.121.69-1.121,1.6a1.313,1.313,0,0,0,1.106,1.56,1.071,1.071,0,0,0,1-.91,1.615,1.615,0,0,0,.029-0.33v-0.72Zm4.935,1.34c0,0.43.01,0.81,0.032,1.14h-0.6l-0.038-.69H763.91a1.383,1.383,0,0,1-1.237.78c-0.585,0-1.29-.37-1.29-1.83v-2.44h0.68v2.3c0,0.8.226,1.34,0.834,1.34a0.984,0.984,0,0,0,.895-0.7,1.119,1.119,0,0,0,.064-0.39v-2.55h0.678v3.04Zm3.792,0.99a2.47,2.47,0,0,1-1.073.24,1.9,1.9,0,0,1-1.86-2.14,2.026,2.026,0,0,1,2.007-2.23,1.978,1.978,0,0,1,.943.23l-0.157.57a1.581,1.581,0,0,0-.786-0.19,1.393,1.393,0,0,0-1.322,1.59,1.375,1.375,0,0,0,1.3,1.56,1.866,1.866,0,0,0,.837-0.2Zm1.651-5.03v1h0.973v0.58h-0.973v2.25c0,0.52.131,0.81,0.511,0.81a1.263,1.263,0,0,0,.392-0.05l0.031,0.58a1.711,1.711,0,0,1-.6.1,0.915,0.915,0,0,1-.735-0.32,1.754,1.754,0,0,1-.261-1.09v-2.28h-0.58v-0.58h0.58v-0.77Zm1.645,4.41a1.846,1.846,0,0,0,.9.29,0.619,0.619,0,0,0,.717-0.62,0.828,0.828,0,0,0-.686-0.77,1.305,1.305,0,0,1-.993-1.18,1.214,1.214,0,0,1,1.285-1.23,1.655,1.655,0,0,1,.913.26l-0.162.54a1.463,1.463,0,0,0-.763-0.24,0.563,0.563,0,0,0-.618.57,0.8,0.8,0,0,0,.7.72,1.3,1.3,0,0,1,.978,1.26,1.243,1.243,0,0,1-1.389,1.26,1.976,1.976,0,0,1-1.048-.29Zm4.9,0.77v-3.6H776v-0.58h0.519v-0.2a2.114,2.114,0,0,1,.441-1.46,1.243,1.243,0,0,1,.9-0.39,1.4,1.4,0,0,1,.582.13l-0.084.58a1,1,0,0,0-.441-0.09c-0.572,0-.726.56-0.726,1.2v0.23h0.9v0.58H777.2v3.6h-0.681Zm3.62,0.09a1.907,1.907,0,0,1-1.788-2.15,1.957,1.957,0,0,1,1.851-2.22,1.9,1.9,0,0,1,1.8,2.14,1.952,1.952,0,0,1-1.852,2.23h-0.011Zm0.028-.57a1.4,1.4,0,0,0,1.131-1.63,1.2,1.2,0,1,0-1.14,1.63h0.009Zm2.7-2.4c0-.49-0.009-0.92-0.034-1.3h0.6l0.032,0.82h0.023a1.165,1.165,0,0,1,1.041-.92,0.558,0.558,0,0,1,.186.03v0.71a1.679,1.679,0,0,0-.243-0.02,1,1,0,0,0-.9.97,2.039,2.039,0,0,0-.024.36v2.23h-0.681Zm4.155-3.25h0.678v2.61h0.016a1.371,1.371,0,0,1,1.275-.76c0.928,0,1.573.87,1.573,2.13,0,1.5-.849,2.24-1.681,2.24a1.311,1.311,0,0,1-1.253-.79h-0.012l-0.04.7H787c0.022-.29.032-0.71,0.032-1.08v-5.05Zm0.678,4.45a1.557,1.557,0,0,0,.024.28,1.081,1.081,0,0,0,1.018.88c0.719,0,1.138-.64,1.138-1.6a1.323,1.323,0,0,0-1.112-1.56,1.109,1.109,0,0,0-1.028.93,1.321,1.321,0,0,0-.04.32v0.75Zm4.108-.28a1.261,1.261,0,0,0,1.276,1.44,2.4,2.4,0,0,0,1.035-.2l0.123,0.53a2.784,2.784,0,0,1-1.255.27,1.855,1.855,0,0,1-1.835-2.1c0-1.27.671-2.26,1.762-2.26a1.707,1.707,0,0,1,1.534,1.96,2.293,2.293,0,0,1-.02.36h-2.62Zm1.984-.55a1.056,1.056,0,0,0-.933-1.23,1.21,1.21,0,0,0-1.046,1.23H793.8Zm2.317-2.67v1h0.977v0.58h-0.977v2.25c0,0.52.136,0.81,0.51,0.81a1.277,1.277,0,0,0,.394-0.05l0.029,0.58a1.707,1.707,0,0,1-.6.1,0.922,0.922,0,0,1-.734-0.32,1.767,1.767,0,0,1-.261-1.09v-2.28h-0.579v-0.58h0.579v-0.77Zm2.557,0v1h0.976v0.58h-0.976v2.25c0,0.52.13,0.81,0.509,0.81a1.273,1.273,0,0,0,.394-0.05l0.029,0.58a1.7,1.7,0,0,1-.6.1,0.921,0.921,0,0,1-.735-0.32,1.747,1.747,0,0,1-.261-1.09v-2.28H797.43v-0.58h0.578v-0.77Zm2.078,3.22a1.261,1.261,0,0,0,1.278,1.44,2.386,2.386,0,0,0,1.033-.2l0.122,0.53a2.771,2.771,0,0,1-1.251.27,1.855,1.855,0,0,1-1.838-2.1c0-1.27.673-2.26,1.763-2.26a1.707,1.707,0,0,1,1.535,1.96,2.129,2.129,0,0,1-.022.36h-2.62Zm1.986-.55a1.054,1.054,0,0,0-.933-1.23,1.205,1.205,0,0,0-1.043,1.23h1.976Zm1.5-.37c0-.49-0.007-0.92-0.029-1.3H804.8l0.035,0.82h0.022a1.163,1.163,0,0,1,1.04-.92,0.567,0.567,0,0,1,.186.03v0.71a1.725,1.725,0,0,0-.241-0.02,1,1,0,0,0-.91.97,2.843,2.843,0,0,0-.023.36v2.23h-0.679Zm4.158-3.25h0.679v2.61h0.014a1.305,1.305,0,0,1,.486-0.54,1.215,1.215,0,0,1,.7-0.22c0.5,0,1.3.35,1.3,1.79v2.49H810.9v-2.4a0.925,0.925,0,1,0-1.777-.49,1.066,1.066,0,0,0-.045.37v2.52H808.4v-6.13Zm4.671,4.17a1.26,1.26,0,0,0,1.273,1.44,2.4,2.4,0,0,0,1.036-.2l0.124,0.53a2.783,2.783,0,0,1-1.252.27,1.855,1.855,0,0,1-1.839-2.1c0-1.27.674-2.26,1.761-2.26a1.707,1.707,0,0,1,1.537,1.96,2.152,2.152,0,0,1-.021.36h-2.619Zm1.986-.55a1.059,1.059,0,0,0-.939-1.23,1.21,1.21,0,0,0-1.041,1.23h1.98Zm4.132,1.5a8.114,8.114,0,0,0,.05,1.01h-0.609l-0.06-.53h-0.025a1.331,1.331,0,0,1-1.141.62,1.13,1.13,0,0,1-1.143-1.2c0-1.01.8-1.56,2.249-1.55v-0.09a0.836,0.836,0,0,0-.852-0.97,1.678,1.678,0,0,0-.985.32l-0.151-.51a2.2,2.2,0,0,1,1.237-.37,1.436,1.436,0,0,1,1.43,1.71v1.56Zm-0.666-1.13c-0.742-.01-1.585.13-1.585,0.94a0.638,0.638,0,0,0,.635.73,0.961,0.961,0,0,0,.92-0.7,0.859,0.859,0,0,0,.03-0.24v-0.73Zm1.752-3.99h0.679v6.13h-0.679v-6.13Zm2.627,0.95v1h0.969v0.58H822.9v2.25c0,0.52.132,0.81,0.509,0.81a1.237,1.237,0,0,0,.391-0.05l0.037,0.58a1.763,1.763,0,0,1-.6.1,0.923,0.923,0,0,1-.738-0.32,1.767,1.767,0,0,1-.261-1.09v-2.28h-0.581v-0.58h0.581v-0.77Zm1.74-.95h0.677v2.61h0.017a1.268,1.268,0,0,1,.484-0.54,1.219,1.219,0,0,1,.7-0.22c0.5,0,1.306.35,1.306,1.79v2.49h-0.683v-2.4a1,1,0,0,0-.863-1.25,1.014,1.014,0,0,0-.911.76,1.065,1.065,0,0,0-.046.37v2.52H824.64v-6.13Zm6.192,1.95,0.5,2.11c0.1,0.47.2,0.91,0.272,1.34h0.022c0.089-.42.211-0.87,0.334-1.33l0.606-2.12h0.576l0.577,2.09c0.141,0.49.248,0.94,0.333,1.36h0.022c0.065-.42.165-0.86,0.289-1.35l0.531-2.1h0.675l-1.206,4.18h-0.621l-0.57-2c-0.13-.47-0.24-0.89-0.333-1.38h-0.013a14.267,14.267,0,0,1-.343,1.39l-0.6,1.99h-0.618l-1.127-4.18h0.7Zm6.865,4.27a1.908,1.908,0,0,1-1.793-2.15,1.958,1.958,0,0,1,1.857-2.22,1.9,1.9,0,0,1,1.8,2.14,1.952,1.952,0,0,1-1.85,2.23H837.7Zm0.024-.57a1.718,1.718,0,1,0-1.125-1.6,1.381,1.381,0,0,0,1.116,1.6h0.009Zm2.7-2.4c0-.49-0.008-0.92-0.03-1.3h0.594l0.034,0.82h0.022a1.162,1.162,0,0,1,1.039-.92,0.552,0.552,0,0,1,.187.03v0.71a1.725,1.725,0,0,0-.241-0.02,1,1,0,0,0-.909.97,2.818,2.818,0,0,0-.026.36v2.23h-0.678Zm2.549-3.25h0.677v6.13h-0.677v-6.13Zm5.037,0v5.05c0,0.37.006,0.79,0.028,1.08h-0.61l-0.035-.73h-0.011a1.366,1.366,0,0,1-1.265.82c-0.907,0-1.612-.86-1.612-2.12,0-1.4.78-2.25,1.68-2.25a1.23,1.23,0,0,1,1.128.63h0.012v-2.48h0.685Zm-0.685,3.65a1.48,1.48,0,0,0-.029-0.33,1.035,1.035,0,0,0-.981-0.87c-0.7,0-1.118.69-1.118,1.6a1.31,1.31,0,0,0,1.106,1.56,1.066,1.066,0,0,0,.993-0.91,1.428,1.428,0,0,0,.029-0.33v-0.72Zm2.073-1.7,0.5,2.11c0.1,0.47.2,0.91,0.271,1.34h0.022c0.087-.42.208-0.87,0.333-1.33l0.61-2.12h0.572l0.58,2.09c0.137,0.49.246,0.94,0.331,1.36h0.022c0.063-.42.166-0.86,0.286-1.35l0.534-2.1h0.672l-1.206,4.18h-0.619l-0.569-2c-0.129-.47-0.24-0.89-0.331-1.38h-0.019a14.286,14.286,0,0,1-.337,1.39l-0.6,1.99H849.83l-1.127-4.18h0.7Zm5.739-.77a0.488,0.488,0,0,1,.013-0.97,0.439,0.439,0,0,1,.432.48,0.45,0.45,0,0,1-.442.49h0Zm-0.326,4.95v-4.18h0.679v4.18h-0.679Zm5.034-6.13v5.05c0,0.37.011,0.79,0.032,1.08h-0.609l-0.028-.73h-0.018a1.369,1.369,0,0,1-1.267.82c-0.905,0-1.606-.86-1.606-2.12-0.007-1.4.77-2.25,1.675-2.25a1.228,1.228,0,0,1,1.128.63h0.013v-2.48h0.68Zm-0.68,3.65a1.423,1.423,0,0,0-.03-0.33,1.034,1.034,0,0,0-.981-0.87c-0.7,0-1.119.69-1.119,1.6a1.311,1.311,0,0,0,1.107,1.56,1.068,1.068,0,0,0,.993-0.91,1.373,1.373,0,0,0,.03-0.33v-0.72Zm2.194,0.52a1.261,1.261,0,0,0,1.272,1.44,2.39,2.39,0,0,0,1.037-.2l0.127,0.53a2.8,2.8,0,0,1-1.254.27,1.856,1.856,0,0,1-1.838-2.1c0-1.27.673-2.26,1.76-2.26a1.706,1.706,0,0,1,1.537,1.96,2.242,2.242,0,0,1-.022.36h-2.619Zm1.985-.55a1.055,1.055,0,0,0-.932-1.23,1.209,1.209,0,0,0-1.046,1.23h1.978Zm-180.811.55a1.259,1.259,0,0,0,1.272,1.44,2.381,2.381,0,0,0,1.036-.2l0.123,0.53a2.768,2.768,0,0,1-1.249.27,1.855,1.855,0,0,1-1.839-2.1c0-1.27.672-2.26,1.76-2.26a1.708,1.708,0,0,1,1.538,1.96,2.008,2.008,0,0,1-.023.36h-2.618Zm1.985-.55a1.06,1.06,0,0,0-.934-1.23,1.207,1.207,0,0,0-1.044,1.23h1.978Zm3.106,2.6a1.906,1.906,0,0,1-1.788-2.15,1.955,1.955,0,0,1,1.851-2.22,1.9,1.9,0,0,1,1.8,2.14,1.954,1.954,0,0,1-1.854,2.23h-0.011Zm0.024-.57a1.717,1.717,0,1,0-1.126-1.6,1.38,1.38,0,0,0,1.119,1.6h0.007Zm2.62-2.34c0-.53-0.008-0.97-0.033-1.36h0.612l0.038,0.72H690.9a1.424,1.424,0,0,1,1.32-.82c0.913,0,1.593.86,1.593,2.13,0,1.5-.826,2.24-1.7,2.24a1.256,1.256,0,0,1-1.15-.66h-0.016v2.27h-0.68v-4.52Zm0.68,1.12a1.273,1.273,0,0,0,.029.3,1.072,1.072,0,0,0,1.016.89c0.717,0,1.131-.65,1.131-1.61a1.317,1.317,0,0,0-1.1-1.55,1.114,1.114,0,0,0-1.035.93,2.261,2.261,0,0,0-.039.31v0.73Zm-13.354-1.12c0-.53-0.01-0.97-0.032-1.36h0.609l0.041,0.72h0.015a1.419,1.419,0,0,1,1.318-.82c0.915,0,1.591.86,1.591,2.13,0,1.5-.827,2.24-1.7,2.24a1.265,1.265,0,0,1-1.152-.66h-0.013v2.27h-0.679v-4.52Zm0.679,1.12a1.328,1.328,0,0,0,.029.3,1.068,1.068,0,0,0,1.012.89c0.719,0,1.137-.65,1.137-1.61a1.318,1.318,0,0,0-1.108-1.55,1.119,1.119,0,0,0-1.033.93,2.812,2.812,0,0,0-.037.31v0.73Zm16.4-4.43h0.679v6.13h-0.679v-6.13Zm2.207,4.17a1.259,1.259,0,0,0,1.272,1.44,2.4,2.4,0,0,0,1.036-.2l0.123,0.53a2.767,2.767,0,0,1-1.248.27,1.853,1.853,0,0,1-1.838-2.1c0-1.27.672-2.26,1.758-2.26a1.709,1.709,0,0,1,1.538,1.96,1.848,1.848,0,0,1-.027.36h-2.614Zm1.985-.55a1.061,1.061,0,0,0-.935-1.23,1.2,1.2,0,0,0-1.043,1.23h1.978Zm-41.311,1.25v-2.26h0.979v-0.61h-0.979v-1.2l-0.68.24v0.96h-0.835v0.61h0.835v2.41a1.043,1.043,0,0,0,1.137,1.2,2.216,2.216,0,0,0,.577-0.11v-0.65a0.785,0.785,0,0,1-.461.15A0.633,0.633,0,0,1,657.556,4167.89Zm12.273-2.87h-0.915l-1.458,1.64v-3.64h-0.679v6.13h0.679v-2.09l1.622,2.09h0.969l-1.936-2.31Zm-16.532-1.67c-1.375,0-2.481,1.1-2.481,2.97,0,1.77,1.054,2.88,2.4,2.88h0.011c1.188,0,2.482-.9,2.482-2.98C655.707,4164.52,654.734,4163.35,653.3,4163.35Zm-0.053,5.27h-0.011c-0.955,0-1.629-1-1.629-2.33,0-1.16.5-2.36,1.663-2.36s1.628,1.29,1.628,2.32C654.9,4167.63,654.187,4168.62,653.244,4168.62Zm12.368-3.6h-0.68v2.55a1.1,1.1,0,0,1-.062.39,0.986,0.986,0,0,1-.9.7c-0.61,0-.833-0.54-0.833-1.34v-2.3h-0.68v2.44c0,1.46.7,1.83,1.29,1.83a1.377,1.377,0,0,0,1.235-.78H665l0.038,0.69h0.6c-0.023-.33-0.029-0.71-0.029-1.14v-3.04Zm-4.815,1.75a0.813,0.813,0,0,1-.7-0.72,0.563,0.563,0,0,1,.617-0.57,1.365,1.365,0,0,1,.765.25l0.163-.55a1.66,1.66,0,0,0-.911-0.25,1.21,1.21,0,0,0-1.291,1.22,1.3,1.3,0,0,0,1,1.18,0.832,0.832,0,0,1,.687.77,0.621,0.621,0,0,1-.719.62,1.868,1.868,0,0,1-.905-0.29l-0.161.57a1.981,1.981,0,0,0,1.05.29,1.245,1.245,0,0,0,1.391-1.26A1.3,1.3,0,0,0,660.8,4166.77Zm12.57,1.37v-1.56a1.436,1.436,0,0,0-1.431-1.71,2.2,2.2,0,0,0-1.235.37l0.155,0.51a1.656,1.656,0,0,1,.983-0.32,0.833,0.833,0,0,1,.845.97v0.09c-1.443-.01-2.245.54-2.245,1.55a1.13,1.13,0,0,0,1.143,1.2,1.332,1.332,0,0,0,1.143-.62h0.026l0.058,0.53h0.609A7.912,7.912,0,0,1,673.367,4168.14Zm-0.667-.4a0.857,0.857,0,0,1-.029.24,0.959,0.959,0,0,1-.92.7,0.638,0.638,0,0,1-.634-0.73c0-.81.843-0.95,1.583-0.94v0.73Zm1.806-1.2h1.807v0.6h-1.807v-0.6Zm-40.314-50.58c-1.2-6.15,1.3-11.03,9.306-16.04,6.971-4.36,18.094-8.28,22.691-9.06a14.1,14.1,0,0,1,12.918,4.54,28.351,28.351,0,0,1,6.459,10.67c1.762,5.43,1.762,10.85-3,16.74-4.072,5.04-15.262,13.33-23.1,16.87s-14.079-.33-18.226-7.05C637.458,4126.51,635.226,4121.29,634.192,4115.96Zm19.041,28.39c0.939-1.41,2.191-1.87,4.278-1.32a15.33,15.33,0,0,1,4.985,2.55,3.6,3.6,0,0,1,1.078,3.31,9.1,9.1,0,0,1-.983,3.27c-0.822,1.62-1.968,2.61-3.475,2.64a18.772,18.772,0,0,1-6.46-1.13c-1.795-.8-2.013-2.72-1.407-4.79A16.01,16.01,0,0,1,653.233,4144.35Zm48.492,9.53c-7.245,0-9.815-6.06-9.815-11.25s2.57-11.25,9.815-11.25,9.816,6.06,9.816,11.25S708.969,4153.88,701.725,4153.88Zm0-23.68c-8,0-11.637,6.44-11.637,12.43s3.641,12.42,11.637,12.42,11.636-6.44,11.636-12.42S709.72,4130.2,701.725,4130.2Zm22.232,6.7h-2.6v-4.81c0-1.09-.552-1.09-0.788-1.09s-0.788,0-.788,1.09v4.81h-2.6a0.489,0.489,0,1,0,0,.96h2.6V4154c0,1.05.552,1.05,0.788,1.05s0.788,0,.788-1.05v-16.14h2.6A0.489,0.489,0,1,0,723.957,4136.9Zm13.18,10.03c-1.008-.36-3.929-1.42-5.056-1.83-2.393-.87-3.372-2.17-3.372-3.98,0-2.74,3.444-4.44,6.63-4.44a12.058,12.058,0,0,1,5.993,1.47c0.879,0.5.166,1.51-.635,1.09a8.93,8.93,0,0,0-5.245-1.6c-2.446,0-4.986,1.13-4.986,3.3,0,1.25.987,2.19,2.5,2.72,0.473,0.16,3.854,1.37,4.437,1.58,3.167,1.12,5,2.37,5,4.87,0,2.96-2.938,4.94-7.313,4.94a10.166,10.166,0,0,1-7.151-2.68c-0.827-.83.194-1.71,0.894-1.02a8.519,8.519,0,0,0,6.378,2.75c3.063,0,5.434-1.67,5.434-3.88C740.64,4148.14,738.8,4147.54,737.137,4146.93Zm25.083-10.25c-0.237,0-.789,0-0.789,1.06v10.77a6.03,6.03,0,0,1-.775,3.59c-0.929,1.29-2.748,2-5.206,2-2.413,0-4.186-.72-5.131-2.03a5.969,5.969,0,0,1-.851-3.56v-10.77c0-1.06-.552-1.06-0.789-1.06s-0.788,0-.788,1.06v11.4c0,3.59,2.967,5.91,7.559,5.91s7.559-2.32,7.559-5.91v-11.4C763.009,4136.68,762.456,4136.68,762.22,4136.68Zm19.567,18.03c0.823,0.62,1.139.22,1.287,0.04s0.486-.61-0.319-1.26l-10.269-8.29s10.034-7.55,10.031-7.54c0.535-.4.361-0.72,0.272-0.84s-0.339-.37-0.874.03l-11.262,8.33v-15.86c0-1.06-.553-1.06-0.789-1.06s-0.788,0-.788,1.06V4154c0,1.05.552,1.05,0.788,1.05s0.789,0,.789-1.05v-8.29S781.789,4154.71,781.787,4154.71Zm12.676-.61c-5.048,0-6.966-4.44-6.966-8.23,0-4.1,2.242-8.23,6.966-8.23,5.016,0,6.8,4.43,6.8,8.23S799.479,4154.1,794.463,4154.1Zm7.585-17.42c-0.236,0-.789.04-0.789,1.06l0,3.75a7.072,7.072,0,0,0-6.876-4.81c-5.893,0-8.577,4.76-8.577,9.19s2.274,9.18,8.66,9.18a6.9,6.9,0,0,0,6.814-4.79V4154c0,1.05.535,1.05,0.771,1.05s0.788,0,.788-1.05v-16.26C802.843,4136.73,802.284,4136.68,802.048,4136.68Z" transform="translate(-633.906 -4090.66)"/>
</svg>
